<svg xmlns="http://www.w3.org/2000/svg" style="display: none;"><symbol id="play-button" viewBox="0 0 477.886 477.886"><title>play-button</title><path d="M476.091,231.332c-1.654-3.318-4.343-6.008-7.662-7.662L24.695,1.804C16.264-2.41,6.013,1.01,1.8,9.442 c-1.185,2.371-1.801,4.986-1.8,7.637v443.733c-0.004,9.426,7.633,17.07,17.059,17.075c2.651,0.001,5.266-0.615,7.637-1.8 L468.429,254.22C476.865,250.015,480.295,239.768,476.091,231.332z" fill="#ffffff"/></symbol><symbol id="question" viewBox="0 0 512 512"><title>question</title><circle cx="256" cy="452" r="60" fill="#FFFFFF"/><path d="m256 0c-86.019 0-156 69.981-156 156v15h120v-15c0-19.851 16.149-36 36-36s36 16.149 36 36c0 10.578-4.643 20.59-12.74 27.471l-83.26 70.787v107.742h120v-52.258l40.976-34.837c34.968-29.714 55.024-73.052 55.024-118.905 0-86.019-69.981-156-156-156z" fill="#FFFFFF"/></symbol><symbol id="refresh" viewBox="0 0 341.333 341.333"><title>refresh</title><path d="M341.227,149.333V0l-50.133,50.133C260.267,19.2,217.707,0,170.56,0C76.267,0,0.107,76.373,0.107,170.667 s76.16,170.667,170.453,170.667c79.467,0,146.027-54.4,164.907-128h-44.373c-17.6,49.707-64.747,85.333-120.533,85.333 c-70.72,0-128-57.28-128-128s57.28-128,128-128c35.307,0,66.987,14.72,90.133,37.867l-68.8,68.8H341.227z" fill="#FFFFFF"/></symbol><symbol id="back" viewBox="0 0 447.243 447.243"><title>back</title><path d="M420.361,192.229c-1.83-0.297-3.682-0.434-5.535-0.41H99.305l6.88-3.2c6.725-3.183,12.843-7.515,18.08-12.8l88.48-88.48 c11.653-11.124,13.611-29.019,4.64-42.4c-10.441-14.259-30.464-17.355-44.724-6.914c-1.152,0.844-2.247,1.764-3.276,2.754 l-160,160C-3.119,213.269-3.13,233.53,9.36,246.034c0.008,0.008,0.017,0.017,0.025,0.025l160,160 c12.514,12.479,32.775,12.451,45.255-0.063c0.982-0.985,1.899-2.033,2.745-3.137c8.971-13.381,7.013-31.276-4.64-42.4 l-88.32-88.64c-4.695-4.7-10.093-8.641-16-11.68l-9.6-4.32h314.24c16.347,0.607,30.689-10.812,33.76-26.88 C449.654,211.494,437.806,195.059,420.361,192.229z" fill="#FFFFFF"/></symbol><symbol id="alarm-clock" viewBox="0 0 512 512"><title>alarm-clock</title><g><path d="m256 89.939c-4.267 0-7.726-3.459-7.726-7.726v-66.266c0-4.268 3.459-7.726 7.726-7.726s7.726 3.459 7.726 7.726v66.266c0 4.267-3.459 7.726-7.726 7.726z" fill="#9facba"/></g><path d="m86.202 62.884h28.381v85.634h-28.381z" fill="#9facba" transform="matrix(.707 -.707 .707 .707 -45.338 101.948)"/><path d="m397.417 62.884h28.381v85.634h-28.381z" fill="#9facba" transform="matrix(-.707 -.707 .707 -.707 627.915 471.494)"/><g><path d="m144.455 512c-1.165 0-2.345-.101-3.531-.31-10.986-1.937-18.322-12.413-16.384-23.399l16.194-91.841c1.937-10.986 12.418-18.319 23.399-16.384 10.986 1.937 18.322 12.413 16.384 23.399l-16.194 91.841c-1.728 9.799-10.251 16.694-19.868 16.694z" fill="#9facba"/></g><g><path d="m358.866 512c-9.618 0-18.14-6.895-19.868-16.694l-16.194-91.841c-1.937-10.986 5.399-21.462 16.385-23.399s21.463 5.399 23.399 16.384l16.194 91.841c1.937 10.986-5.399 21.462-16.385 23.399-1.186.209-2.367.31-3.531.31z" fill="#9facba"/></g><circle cx="256" cy="256.741" fill="#e53950" r="195.796"/><circle cx="256" cy="256.741" fill="#d5e3f4" r="150.262"/><g><path d="m208.152 331.015c-3.427 0-6.875-1.134-9.741-3.465-6.621-5.384-7.623-15.117-2.238-21.738l44.375-54.561v-93.734c0-8.534 6.919-15.453 15.453-15.453s15.453 6.919 15.453 15.453v99.225c0 3.551-1.223 6.995-3.464 9.75l-47.839 58.821c-3.055 3.754-7.509 5.702-11.999 5.702z" fill="#596c76"/></g><path d="m126.649 70.192-61.766 61.766c-2.823 2.823-7.4 2.823-10.223 0l-8.307-8.307c-19.879-19.879-19.879-52.11 0-71.99 19.879-19.879 52.11-19.879 71.99 0l8.307 8.307c2.822 2.824 2.822 7.401-.001 10.224z" fill="#7a8c98"/><path d="m385.351 70.192 61.766 61.766c2.823 2.823 7.4 2.823 10.223 0l8.307-8.307c19.879-19.879 19.879-52.11 0-71.99-19.879-19.879-52.11-19.879-71.99 0l-8.307 8.307c-2.822 2.824-2.822 7.401.001 10.224z" fill="#7a8c98"/><path d="m279.034 31.893h-46.067c-8.807 0-15.946-7.139-15.946-15.946-.001-8.808 7.138-15.947 15.945-15.947h46.067c8.807 0 15.946 7.139 15.946 15.946.001 8.807-7.138 15.947-15.945 15.947z" fill="#e53950"/><path d="m256 60.945c-7.702 0-15.296.46-22.767 1.325 97.407 11.282 173.029 94.038 173.029 194.471s-75.622 183.189-173.029 194.471c7.47.865 15.065 1.325 22.767 1.325 108.135 0 195.796-87.661 195.796-195.796s-87.661-195.796-195.796-195.796z" fill="#ca2e43"/><path d="m256 106.479c-4.926 0-9.795.246-14.601.711 76.029 7.366 135.661 71.622 135.661 149.551s-59.632 142.185-135.661 149.551c4.806.466 9.675.711 14.601.711 82.855 0 150.262-67.407 150.262-150.262s-67.407-150.262-150.262-150.262z" fill="#b3ceec"/></symbol><symbol id="star" viewBox="0 0 512 512"><title>star</title><polygon points="512,197.816 325.961,185.585 255.898,9.569 185.835,185.585 0,197.816 142.534,318.842 95.762,502.431 255.898,401.21 416.035,502.431 369.263,318.842 " fill="#FFFFFF"/></symbol><symbol id="check" viewBox="0 0 367.805 367.805"><title>check</title><g transform="matrix(0.696413 0 0 0.696413 55.8303 55.8303)"><g> <path style="fill:#3BB54A;" d="M183.903,0.001c101.566,0,183.902,82.336,183.902,183.902s-82.336,183.902-183.902,183.902 S0.001,285.469,0.001,183.903l0,0C-0.288,82.625,81.579,0.29,182.856,0.001C183.205,0,183.554,0,183.903,0.001z" data-original="#3BB54A" class=""/> <polygon style="fill:#D4E1F4;" points="285.78,133.225 155.168,263.837 82.025,191.217 111.805,161.96 155.168,204.801 256.001,103.968 " data-original="#D4E1F4" class="active-path"/> </g></g></symbol><symbol id="speaker-1" viewBox="0 0 52.026 52.026"><title>speaker-1</title><path d="M26.894,3.013c-0.551,0-1.097,0.153-1.579,0.444c-0.046,0.027-0.09,0.059-0.13,0.093L11.634,15.013H1c-0.553,0-1,0.447-1,1 v19c0,0.553,0.447,1,1,1h10.61l13.543,12.436c0.05,0.046,0.104,0.086,0.161,0.12c0.482,0.291,1.028,0.444,1.579,0.444 c1.713,0,3.106-1.416,3.106-3.156V6.169C30,4.429,28.606,3.013,26.894,3.013z M13,34.013c0,0.553-0.447,1-1,1s-1-0.447-1-1v-4 c0-0.553,0.447-1,1-1s1,0.447,1,1V34.013z M13,21.013c0,0.553-0.447,1-1,1s-1-0.447-1-1v-4c0-0.553,0.447-1,1-1s1,0.447,1,1V21.013 z" fill="#FFFFFF"/><path d="M38.797,7.066c-0.523-0.177-1.091,0.103-1.269,0.626c-0.177,0.522,0.103,1.091,0.626,1.269 c7.101,2.411,11.872,9.063,11.872,16.553c0,7.483-4.762,14.136-11.849,16.554c-0.522,0.178-0.802,0.746-0.623,1.27 c0.142,0.415,0.53,0.677,0.946,0.677c0.107,0,0.216-0.017,0.323-0.054c7.896-2.693,13.202-10.106,13.202-18.446 C52.026,17.167,46.71,9.753,38.797,7.066z" fill="#FFFFFF"/><path d="M43.026,25.513c0-5.972-4.009-11.302-9.749-12.962c-0.533-0.151-1.084,0.152-1.238,0.684 c-0.153,0.53,0.152,1.085,0.684,1.238c4.889,1.413,8.304,5.953,8.304,11.04s-3.415,9.627-8.304,11.04 c-0.531,0.153-0.837,0.708-0.684,1.238c0.127,0.438,0.526,0.723,0.961,0.723c0.092,0,0.185-0.013,0.277-0.039 C39.018,36.815,43.026,31.485,43.026,25.513z" fill="#FFFFFF"/></symbol><symbol id="close" viewBox="0 0 365.71733 365"><title>close</title><g transform="matrix(0.754569 0 0 0.754569 44.8793 44.7912)"><g transform="matrix(0.762343 0 0 0.762343 43.4577 43.3724)"><g fill="#f44336"><path d="m356.339844 296.347656-286.613282-286.613281c-12.5-12.5-32.765624-12.5-45.246093 0l-15.105469 15.082031c-12.5 12.503906-12.5 32.769532 0 45.25l286.613281 286.613282c12.503907 12.5 32.769531 12.5 45.25 0l15.082031-15.082032c12.523438-12.480468 12.523438-32.75.019532-45.25zm0 0" data-original="#F44336" class="active-path" style="fill:#F44336"/><path d="m295.988281 9.734375-286.613281 286.613281c-12.5 12.5-12.5 32.769532 0 45.25l15.082031 15.082032c12.503907 12.5 32.769531 12.5 45.25 0l286.632813-286.59375c12.503906-12.5 12.503906-32.765626 0-45.246094l-15.082032-15.082032c-12.5-12.523437-32.765624-12.523437-45.269531-.023437zm0 0" data-original="#F44336" class="active-path" style="fill:#F44336"/></g></g></g></symbol><symbol id="idea" viewBox="0 0 24 24"><title>idea</title><path d="m12 3.457c-.414 0-.75-.336-.75-.75v-1.957c0-.414.336-.75.75-.75s.75.336.75.75v1.957c0 .414-.336.75-.75.75z" fill="#FFFFFF"/><path d="m18.571 6.179c-.192 0-.384-.073-.53-.22-.293-.293-.293-.768 0-1.061l1.384-1.384c.293-.293.768-.293 1.061 0s.293.768 0 1.061l-1.384 1.384c-.147.146-.339.22-.531.22z" fill="#FFFFFF"/><path d="m23.25 12.75h-1.957c-.414 0-.75-.336-.75-.75s.336-.75.75-.75h1.957c.414 0 .75.336.75.75s-.336.75-.75.75z" fill="#FFFFFF"/><path d="m19.955 20.705c-.192 0-.384-.073-.53-.22l-1.384-1.384c-.293-.293-.293-.768 0-1.061s.768-.293 1.061 0l1.384 1.384c.293.293.293.768 0 1.061-.147.147-.339.22-.531.22z" fill="#FFFFFF"/><path d="m4.045 20.705c-.192 0-.384-.073-.53-.22-.293-.293-.293-.768 0-1.061l1.384-1.384c.293-.293.768-.293 1.061 0s.293.768 0 1.061l-1.384 1.384c-.147.147-.339.22-.531.22z" fill="#FFFFFF"/><path d="m2.707 12.75h-1.957c-.414 0-.75-.336-.75-.75s.336-.75.75-.75h1.957c.414 0 .75.336.75.75s-.336.75-.75.75z" fill="#FFFFFF"/><path d="m5.429 6.179c-.192 0-.384-.073-.53-.22l-1.384-1.384c-.293-.293-.293-.768 0-1.061s.768-.293 1.061 0l1.384 1.384c.293.293.293.768 0 1.061-.148.146-.339.22-.531.22z" fill="#FFFFFF"/><path d="m15 21v1.25c0 .96-.79 1.75-1.75 1.75h-2.5c-.84 0-1.75-.64-1.75-2.04v-.96z" fill="#FFFFFF"/><path d="m16.41 6.56c-1.64-1.33-3.8-1.85-5.91-1.4-2.65.55-4.8 2.71-5.35 5.36-.56 2.72.46 5.42 2.64 7.07.59.44 1 1.12 1.14 1.91v.01c.02-.01.05-.01.07-.01h6c.02 0 .03 0 .05.01v-.01c.14-.76.59-1.46 1.28-2 1.69-1.34 2.67-3.34 2.67-5.5 0-2.12-.94-4.1-2.59-5.44zm-.66 5.94c-.41 0-.75-.34-.75-.75 0-1.52-1.23-2.75-2.75-2.75-.41 0-.75-.34-.75-.75s.34-.75.75-.75c2.34 0 4.25 1.91 4.25 4.25 0 .41-.34.75-.75.75z" fill="#FFFFFF"/><path d="m8.93 19.5h.07c-.02 0-.05 0-.07.01z" fill="#FFFFFF"/><path d="m15.05 19.5v.01c-.02-.01-.03-.01-.05-.01z" fill="#FFFFFF"/></symbol><symbol id="speaker" viewBox="0 0 54 54"><title>speaker</title><path d="M46.414,26l7.293-7.293c0.391-0.391,0.391-1.023,0-1.414s-1.023-0.391-1.414,0L45,24.586l-7.293-7.293 c-0.391-0.391-1.023-0.391-1.414,0s-0.391,1.023,0,1.414L43.586,26l-7.293,7.293c-0.391,0.391-0.391,1.023,0,1.414 C36.488,34.902,36.744,35,37,35s0.512-0.098,0.707-0.293L45,27.414l7.293,7.293C52.488,34.902,52.744,35,53,35 s0.512-0.098,0.707-0.293c0.391-0.391,0.391-1.023,0-1.414L46.414,26z" fill="#FFFFFF"/><path d="M26.894,4c-0.551,0-1.097,0.153-1.579,0.444c-0.046,0.027-0.09,0.059-0.13,0.093L11.634,16H1c-0.553,0-1,0.447-1,1v19 c0,0.553,0.447,1,1,1h10.61l13.543,12.436c0.05,0.046,0.104,0.086,0.161,0.12C25.797,49.847,26.343,50,26.894,50 C28.606,50,30,48.584,30,46.844V7.156C30,5.416,28.606,4,26.894,4z M13,35c0,0.553-0.447,1-1,1s-1-0.447-1-1v-4 c0-0.553,0.447-1,1-1s1,0.447,1,1V35z M13,22c0,0.553-0.447,1-1,1s-1-0.447-1-1v-4c0-0.553,0.447-1,1-1s1,0.447,1,1V22z" fill="#FFFFFF"/></symbol><symbol id="home" viewBox="0 0 511.995 511.995"><title>home</title><path d="m507.308 236.641-198.98-198.99c-28.86-28.85-75.8-28.85-104.66 0l-198.98 198.99c-6.25 6.25-6.25 16.38 0 22.63 6.24 6.25 16.38 6.25 22.62 0l12.69-12.69v203.4c0 25.405 20.595 46 46 46h80c5.523 0 10-4.477 10-10v-148c0-27.614 22.386-50 50-50h60c27.614 0 50 22.386 50 50v148c0 5.523 4.477 10 10 10h80c25.405 0 46-20.595 46-46v-203.4l12.69 12.69c3.12 3.12 7.22 4.69 11.31 4.69s8.19-1.57 11.31-4.69c6.25-6.25 6.25-16.38 0-22.63z" fill="#FFFFFF"/></symbol></svg>